<svg id="Ebene_1" data-name="Ebene 1" xmlns="http://www.w3.org/2000/svg" viewBox="0 0 960 960"><defs><style>.cls-1{fill:#fff;}</style></defs><path class="cls-1" d="M-236.39-350.85h960v960h-960Q-236.38,129.15-236.39-350.85ZM121.15,236.74c-7.12-6.58-9.21-16-3.78-24.81,4-6.53,9.14-13,15.21-17.5,22.32-16.75,27.39-40.63,28.94-66.18.08-1.35-2-2.82-3-4.23-1.52,1.18-3.4,2.11-4.44,3.62-.73,1.06-.28,2.91-.4,4.4-1.93,23.24-9,43.64-28.6,58.6-6.46,4.92-11.41,12.6-15.26,20-5.6,10.7-3.46,21.34,4.37,30.65,1.72,2.05,3.51,4.51,6.61,2.46s1.64-4.59.35-7c5.34,4.17,5.68,4.13,10.08-1.41,6.35-8,14.56-9.72,23.44-4.66a51,51,0,0,1,6.85,5c2.27,1.85,4.87,2.59,6.32-.16.72-1.36-.11-4.59-1.37-5.8C150.76,214.48,131.35,217.61,121.15,236.74ZM-1.43,52.2c-1.69,3.58-.34,6.55,1.62,9.44,5.38-2,8.15-1.41,11.39,2.67-7.14,1-13.6.06-19.71-3.52-1.11-.65-2.7-.47-4.08-.68.91,1.12,1.64,2.5,2.77,3.29A42.32,42.32,0,0,0-4,66.21c-4.07.83-7.77.45-11.49.26a26.46,26.46,0,0,0-4.22.42C-18.53,68-17.44,69.73-16,70c6.17,1.31,12.42,2.22,18.66,3.18.65.1,1.41-.48,2.43-.86L3,68.62,14.39,68l-.75-5.64c6.5,1.5,12.43,3,18.41,4.15,1.37.27,2.94-.47,4.42-.74-1.06-.91-2.11-1.82-3.18-2.72-.52-.45-1.08-.86-2.82-2.25,2.73.43,4,.51,5.22.83,7.31,1.91,14.58,4,21.93,5.74,2.09.49,4.4.07,6.61.07,2.44-.07,5.22,1.86,7.31,1.28a15.63,15.63,0,0,1,12.85,1.71c3.57,2.14,6.88,4.72,10.46,6.82,1.1.65,2.73.38,4.12.54-.61-1.18-.92-2.81-1.89-3.46C90.57,70,83.89,65.87,77.34,61.59c-2.77-1.82-5.36-3.93-8-5.91l.84-1.24c5.79,3.4,11.54,6.87,17.4,10.16,1.08.6,2.57.46,3.87.67a30.39,30.39,0,0,0-1.57-3.65c-1.69-2.85-3.5-5.63-5.26-8.43l1.81-1.7,25.73,16.34,1-1.3L90,47.7c5.65-1.45,5.65-1.45,3.09-7,2.39.4,4.61.12,5.71,1.1a84.88,84.88,0,0,1,8.1,8.83c4.2,5,11.67,7.31,12.45,15.14a15,15,0,0,0,2.28.4c-1.43-3.58-2-7-3.89-9.31-3.43-4.23-7.72-7.76-11.5-11.72a56.24,56.24,0,0,1-4.1-5.51l1.18-1.37c-1.76-.37-3.5-.78-5.27-1.09-5.08-.87-10.16-1.75-15.26-2.5a18.77,18.77,0,0,0-3.8.19c.83,1,1.46,2.49,2.54,3.06,3,1.57,6.1,2.77,9.17,4.12l-.46,1.4c-2.37-.33-4.76-.53-7.09-1-3.09-.65-6.11-1.72-9.22-2.18-1-.15-2.28,1-3.43,1.61,1,.69,1.85,1.71,2.93,2,4.78,1.29,9.62,2.38,14.44,3.55-6.63,1.2-7.16,4.63-4.4,10.2-3-2.32-4.75-5.46-7.36-7.45C70.73,46,64.86,42.53,59.56,39l-.92-4.21c-.58,1-1.1,2.09-1.75,3.07s-1.28,2.49-2.29,2.94c-4,1.77-2.38,3.19.12,4.57,3,1.69,6.15,3.25,9.23,4.87C60.67,55,67.06,55,67.43,57.68c-7.86,4.25-6.32-5.63-10.92-7.43v5.16c-2.28-1.7-5.11-3-5-3.87.74-5.8-4.81-6.89-7.32-10.31-3.41,5.38,4.37,6.32,4.25,11.29-2.07-1.13-5.21-2-5.28-3-.28-4.19-2.62-2.48-4.84-2.58-5.48-.23-11.12,4.38-16.6-1.29-1.68,5.93-6.1,5.1-9.79,4.65C6.19,49.56.55,48-5.15,47-6,46.83-7,47.35-8,47.56c.55.82.92,1.91,1.67,2.41a41.69,41.69,0,0,0,4.79,2.35Zm-30.07,122C-44,157.83-44.66,138-49.15,118c6.4,7.12,10,14.15,10.4,22.6.13,2.86.78,5.12,4.14,4.89s4-2.83,3.58-5.45c-.77-4.4-1.08-9.23-3.2-13a177.21,177.21,0,0,0-14.2-20.41c-1.62-2.08-4.66-3.06-7-4.55-.38.4-.77.8-1.16,1.19a77.89,77.89,0,0,1-3-8.92c-1.06-5,1.17-7.28,6.06-5.72a75.87,75.87,0,0,1,14.45,6.58c3.24,1.87,5.88,5.17,8.84-.13.18-.31,1.43-.18,2.13,0,4.26.89,5.46-1.07,4.89-5C-24.55,81.34-25.78,72.6-27,63.86-32,28.24-38.35-7.26-41.61-43c-4.93-54.24,9.55-103.65,42.86-147.13,29.07-38,65.86-66.77,107.55-89.52,37.5-20.46,77.51-33.21,120.38-34.95,56.31-2.27,109.08,11.51,158.29,38.48,33.91,18.58,62.23,43.41,80.59,78.26,15.95,30.29,23.87,63,26.38,96.73,2.85,38.37,3.95,76.87,5.71,115.31.08,1.67-1,3.35-1.23,5.07s-.47,3.93.42,4.86,3.25.92,4.82.6,2.83-1.74,4.36-2.36c9.84-4,19.58-8.19,29.62-11.55,3.58-1.19,7.9-.19,11.88-.19l.17,1.7c-1.17.83-2.3,1.71-3.51,2.47C532.84,23.54,523.4,36,517,50.87c-1,2.24-1.84,5,1.33,5.69,1.64.35,4.12-1.14,5.54-2.51s1.78-3.52,2.66-5.31c7-14.28,17.83-24.62,31.86-31.68,16,14.33,19.32,45.47,10.08,73.18-4-9.78-8.34-20.16-12.53-30.58-1.86-4.64-3.58-9.33-5.09-14.09-.84-2.65-1.8-5-5-4.07s-3.53,3.61-2.39,6.44c3.23,8,6.4,16.08,9.78,24,3.86,9.08,7.63,18.15,7.56,28.26,0,1.14.13,3.08-.37,3.28-5.07,2.09-4,6.88-4.81,10.71-2.79,13.29-8.23,25.14-17.83,35-.71-.54-1-1-1.47-1.1-1.87-.4-3.76-.7-5.64-1-.07,2-.28,4.1-.18,6.15a13.62,13.62,0,0,0,.92,3.64,15.84,15.84,0,0,0,1.66,3.89c1.59,2.3,3.7,4.27,5.08,6.68s1.56,5.22,3.05,7.33a5.57,5.57,0,0,0,4.89,1.77c1-.32,2.19-3.25,1.83-4.62a69.65,69.65,0,0,0-4.53-12.15c-1.21-2.52-.73-4,.91-6.11C548.61,148,552.52,142,556.37,136c1.49-2.33,2.37-5.05,3.52-7.59l1.19.41c-3.05,15.32-5.74,30.74-9.31,45.94a79.47,79.47,0,0,1-8,21.37c-7.15,12.41-19,14.43-30.54,5.93a52.42,52.42,0,0,1-10.48-9.9c-3.43-4.47-6.69-1.3-9.65-.32-1.5.49-3.06,3.45-3.07,5.3a75,75,0,0,0,1.28,15.41c4.94,24.05,6.74,48.06,1.71,72.4-9.7,47-7.12,94.13-1.14,141.25.18,1.4,2.76,2.5,4.22,3.73a35.15,35.15,0,0,0,3.66-4.56c.39-.66-.26-1.91-.4-2.9-5.07-35.43-6.8-71-3.17-106.63,1.47-14.4,3.89-28.72,6.15-43,3.17-20.1,1-39.85-3.15-59.54-.93-4.38-1.13-8.91-1.68-13.44,6.51,4.19,12,8.54,18.22,11.55,12.88,6.28,24.86,3.12,32.86-8.67,3.6-5.31,7-11.25,8.5-17.38,4.11-16.28,7.34-32.8,10.64-49.27C572,115,576.41,94,579.85,72.79c2.94-18.15.83-35.9-8.31-52.34C565.06,8.8,555.47,2.61,541.84,3.09c-10.07.35-19.21,3.75-28.18,7.88-1.72.79-3.45,1.54-5.53,2.46-.18-2.26-.35-3.74-.41-5.23-1-24.31-1.85-48.62-2.92-72.92-1.38-31-4.15-61.82-12.3-91.93-12.64-46.66-38.16-84.28-78-112C387-287.72,356.76-301,324.71-310.34c-49.64-14.4-99.66-17-150-3.8-60.74,15.89-112,47.85-156,92.18-26.9,27.13-47.64,58.17-59.52,94.76-11.33,34.86-11.47,70.57-6.9,106.37,3.58,28.08,8.52,56,12.83,84,1.4,9.13,2.68,18.27,4.2,28.7-7.17-7-14.3-11-23.09-10.94-10.18,0-15.53,6.76-13,16.48,1,3.82,3.12,7.33,4.45,11.08,2.77,7.78,6.08,15.47,7.83,23.49,3.26,15,5.59,30.18,13.56,43.66,1,1.78,2.43,4,4.15,4.57,1.52.54,3.73-.87,5.15-1.28,2.81,10.32,5.42,20.8,8.54,31.12,4.48,14.81,10,29.34,13.89,44.3,7.2,28,14.87,55.61,28.37,81.41a69.68,69.68,0,0,1,7.11,23.72c1.5,12.68,3.57,25.05,8.57,36.82,11.85,27.91,19.48,58,42.19,80.11-3.33,5.22-3.43,5.32.58,10.14,5.44,6.52,10.85,13.1,16.65,19.29,25.2,26.88,53.38,49.77,87.92,63.72,32.58,13.16,65.35,14.84,98.17.61a238.76,238.76,0,0,0,52.49-31.67c38.79-30.44,70.53-67.23,97.77-108.18,21.32-32.05,38.23-66,46.34-103.85,3-13.84,5.61-27.75,8.39-41.63.62-3.13.17-6-3.53-6.45s-3.71,2.54-4.14,5c-.71,4.1-1.38,8.21-2.14,12.3-4.44,23.93-8.79,47.93-18.56,70.39C439.16,407.22,414.27,444,385,477.78c-24.32,28.07-51.26,53.3-83,73-39.19,24.34-79.86,29-122.35,9.27-35.44-16.44-64.34-41.23-89.55-70.65-.2-.25-.1-.76-.19-1.61,2.69,1.94,4.9,3.69,7.26,5.22,5.31,3.45,10.67,6.81,16,10.17,2.54,1.59,5.34,3,7.26-.55,1.79-3.25-.71-4.81-3.22-6.1-.45-.23-.88-.47-1.32-.72-25.2-14.78-45.54-34.1-57.16-61.49-4.87-11.5-9.69-23-14.25-34.64-5-12.89-9.71-25.92-10.49-39.95-.58-10.33-4.17-19.76-8.31-29.13-6-13.53-12.42-27-17-41-8.68-26.74-16-53.93-24.23-80.82-4.8-15.67-9.31-31.28-8.49-47.95.07-1.38-2-2.87-3-4.31-1.51,1.25-4.13,2.36-4.3,3.77C-31.85,164.86-31.5,169.53-31.5,174.17ZM352.6,298.42l-.91.19c-.05-.15-.1-.31-.16-.46-1.6-4.11.76-12.44-8.73-8.17-.25.12-.84-.7-1.25-.68-1.65.09-3.6-.13-4.84.68-.78.52-1.15,3.21-.53,3.94,1,1.13,2.93,1.39,4.44,2.09,1,.49,2,1.1,3,1.66a74.35,74.35,0,0,1-15.44.57q-27.36-2.6-54.68-5.69c-16-1.84-32.06-5.71-48-.12a62.08,62.08,0,0,1-40.2.64c-11.79-3.66-23.35-2.18-34.81,1.85-13.35,4.71-26.9,8.87-40.12,13.9-6.94,2.63-13.43,6.48-20,10.1a5.51,5.51,0,0,0-2.42,4.3c.31,3.21,1.49,6.33,2.39,9.74-3.8.3-4.32,2.72-3.9,6C89,358.06,93,376.72,101.7,394.1c12.3,24.65,31.31,40.85,59,45.23,32.72,5.18,64.73,1.63,96-9.1,21-7.21,37.84-20.12,50.57-38.22,11.59-16.49,22.87-33.2,34.2-49.87A59.93,59.93,0,0,0,352,311.3a7.84,7.84,0,0,1,1.48-3.82c1.1-1.53,3.94-3.41,3.64-4.07C356.24,301.46,354.19,300,352.6,298.42Zm-79.27-305,22.14-9.71c.43.52,1.5,2.5,2.06,2.36a65.68,65.68,0,0,0,8.68-3c1.69-.67,3.83-2.63,4.89-2.14,6,2.81,9.42-2.88,14.19-3.87,1.77-.36,3.41-1.42,5.18-1.72.92-.16,2,.64,3,1l-.06,1.57-14.93,3.83.45,2.38,12.19-.94c1.39,3.64,2.44,4.17,4.18,1.63,3.22-4.69,6.9-6.36,12.68-4.67,2.86.84,6.37-.4,9.56-.88,8.45-1.27,10.11,6.66,14.88,10.35-5-.59-7.35-7.21-14.81-5.6,3.05,2.52,5,4.26,7.05,5.77,7.95,5.78,15.95,11.48,23.93,17.21,1.08.77,2.05,2,3.24,2.21.7.16,1.71-1.11,2.59-1.74-4-2.07-1-6.41-2.7-8.85C386.4-9.2,380.59-16.61,374.88-24.1a2.2,2.2,0,0,0-2-.22,3.2,3.2,0,0,0-.59,2.49,11.21,11.21,0,0,0,2,2.75c-3.3,1.45-3.54,1.63-5.94-1.68s-4.6-5-7.34-2.64l-6-4.19c-1.86,12.76-6.5,2.84-11.31,2.11,2.91-1.36,4.83-3.07,6.65-3,12.64.71,25.33,1.45,36.68,8.18,1,.61,2.57.39,3.87.56-.66-1.26-1-3.3-2-3.66-7.3-2.65-14.67-5.13-22.12-7.32-3-.87-6.2-.88-9.31-1.28,0-.49,0-1-.08-1.47,6.54-1.74,13.1-3.41,19.62-5.25a17.28,17.28,0,0,0,3.6-2c-1.09-.65-2.19-1.29-3.27-2-.77-.48-1.55-1-2.28-1.52-16.3-12.52-33.7-20.78-55.3-18.47-11.11,1.19-22.66.43-33.77-1.18-14.95-2.17-28.35-.29-40.79,8.7-4.79,3.46-10.52,5.61-15.76,8.48a29.1,29.1,0,0,0-3.79,2.93c1.62.24,3.57,1.17,4.8.59,6.44-3.06,13.08-5.94,18.94-9.93,10.24-7,21.15-9.42,33.22-7.2a132.73,132.73,0,0,0,40.8,1.6c18.83-2.38,33.8,5.73,48.14,16.89-5.67,2-10.89,4-16.26,5.56-3.54,1-6.88,6.36-11.06,1-.1-.13-.62.12-.94.12h-9.33c.51-.91,1.22-2.15,1.92-3.4-1.46-.12-3.21-.83-4.33-.28-10.65,5.25-22.12,6.31-33.69,6.83-2.83.13-5.77-1-8.54-.68-5.58.75-11,2.59-16.62,3.14-4.76.47-9.74,4.07-14.54-.25-.29-.27-1.75.57-2.54,1.09-2.46,1.59-4.87,3.27-6.24,4.2l-7,16.64,3.61,3.45L241.15.47c-.2-2.82-.35-4.95-.5-7.08l-1.5-.06-.75,9.1-1.23-.13V-6.55l-.92-.08q-2,16.18-3.89,32.38l-1.5-.16v-10c-4.72,9.71-4.47,16.91.5,18.4,1-3.67,1.87-7.39,3.13-11s2.35-7.45,4.57-10.39C241.61,9.3,245.45,7,248.5,4c7.43-7.35,7.19-7.47,16.76-10.67a10.41,10.41,0,0,0,1.39-.57c2.39-1.16,4.76-2.36,7.17-3.49.38-.18.91,0,1.88,0C275-9.58,274.53-8.72,273.33-6.61Zm113.5,307.4c-1.22-6.78-1.79-12.44-3.3-17.85-3.72-13.36-11.77-24.3-21.3-33.95-25.05-25.36-50.47-50.36-75.74-75.51-.47-.47-1-1.22-1.51-1.25-1.51-.08-3.7-.42-4.39.4a6.1,6.1,0,0,0-.81,4.77c.31,1.28,1.83,2.29,2.89,3.34q24.74,24.4,49.5,48.76c13.3,13.08,26.73,26,37.24,41.64,6.9,10.26,10.16,21.43,8.26,33.63a187.13,187.13,0,0,1-5.47,22.77c-5.23,18.23-10.71,36.39-16.07,54.59-.84,2.85-1.46,6,2.41,6.92,4,1,4.34-2.38,5.15-5.12,5.8-19.62,11.82-39.19,17.44-58.87C383.5,316.79,385.09,308.3,386.83,300.79ZM49.18,299.12l1.49.46c.73,6.1,2,12.18,2.1,18.29.5,35.49,12,67.57,29.66,97.82,1,1.72,1.9,3.75,3.42,4.85,1.16.84,3.66,1.11,4.75.39s1.26-3,1.24-4.57c0-1-1.14-2-1.72-3-15.29-27-27.66-55-29.07-86.75-.48-10.92-2.71-21.76-3.92-32.67-.15-1.28.78-2.91,1.64-4,4.6-6.09,10.56-11.48,13.76-18.21,6.49-13.62,11.83-27.82,17-42,3.17-8.7,4.09-18.19,9.87-26,.73-1-.8-3.65-1.28-5.54-1.6.41-4,.31-4.65,1.34A61.1,61.1,0,0,0,87,211.25c-4.88,12.53-10,25-13.88,37.87a90.91,90.91,0,0,1-27.65,43.1c-3.52,3.11-6.13,7.43-8.52,11.56-.66,1.15,1,3.61,1.54,5.47,1.73-.68,3.94-.92,5.08-2.15C45.78,304.74,47.35,301.81,49.18,299.12ZM351.07,58.71c5,2.17,9.49,4.25,14.09,6,1.38.53,3.1.16,4.66.2-.83-1.39-1.33-3.29-2.55-4.08a41.34,41.34,0,0,0-25.15-6.79c-9.42.52-18.78,2.2-28.16,3.4-3.74.48-7.6.57-11.16,1.66a59,59,0,0,0-10.73,5c-5.22,2.86-10.64,5.53-15.37,9.09-4.57,3.43-7.59,8.27-7,14.7-1.89.16-3.79,0-5.48.56-1.51.49-2.77,1.73-4.15,2.65,1.44.63,2.87,1.79,4.31,1.81,9.64.09,19.29-.1,28.93-.1,5,0,10,.32,15,.24,1,0,1.93-1.26,2.9-1.94-.86-.83-1.58-2-2.61-2.41a11.53,11.53,0,0,0-4-.23H274c-.44-9.8,13.43-19.64,24.4-21.1,4.05,14.64,12.82,21.4,26.76,20.67C339.45,87.29,347.9,78.08,351.07,58.71ZM527.3,116.27l-1.56.09c-5.25-7.25-10.82-14.3-15.67-21.81-9.09-14-17.35-28.41-9.86-46.17.45-1.08-1.18-3.91-2.51-4.57-1-.48-3.44,1-4.51,2.18s-1.5,3.3-2,5.06c-3.66,13.09-.45,25.3,6.15,36.44,6.78,11.43,14.44,22.38,22.24,33.15,2.91,4,3.24,7.2.48,11-4,5.49-5.49,12.93-12.93,15.74-.7.27-1.08,3.9-.3,5.13,2.18,3.42,6.36,3.48,8.6,0,6-9.37,12.38-18.61,17.11-28.61,7.88-16.65,9.16-35,11.28-53,.3-2.52,1.18-5.35-2.38-6-3.72-.66-4.86,1.91-5.28,5.07-.81,6.11-1.44,12.26-2.63,18.3C531.67,97.63,529.4,106.94,527.3,116.27ZM264-99.9l-.19-1.21a14.17,14.17,0,0,0-3.51,0C248.75-98,237-95.46,225.72-91.5c-42.79,15-86.59,26.44-130.65,37-17.31,4.13-34.79,7.71-51.81,12.83C26.81-36.76,13-27.2,3.1-12.71,2.26-11.48,1.61-10.13.66-8.48c1.23.06,1.61.19,1.83.06a3.55,3.55,0,0,0,1-1C14.6-26.61,30.9-36.66,50-41.88,68.13-46.82,86.72-50,105-54.5c42.35-10.44,84.58-21.37,125.54-36.61a14.59,14.59,0,0,1,5.19-1.13c3.55.1,7.22,1.39,10.61.83,16.91-2.77,33.81-5.65,50.58-9.13,18.26-3.8,36.24-4.94,54.13,1.71A119.16,119.16,0,0,1,383.4-80.3c1.05.82,2.84.71,4.28,1-.37-1.08-.42-2.58-1.18-3.2-20.72-16.84-43.78-27.46-71.16-24.69-11.39,1.16-22.63,3.85-33.9,6-11.67,2.19-23.31,4.54-35,6.83-.11-.56-.23-1.12-.35-1.68Zm22.66,309.47c-.47-11.77-4.17-22.08-15.56-27.44-5.47-2.57-11.68-3.72-17.68-4.93-6.85-1.39-13.51-3.25-17.9-8.94-3.72-4.84-7.61-10-9.58-15.64-4.19-12.05-7.09-24.54-10.79-36.77-.54-1.79-2.51-4.42-3.88-4.46-3.36-.09-4.11,2.68-3.6,5.72,2.91,17.36,7.74,34.09,16.67,49.38,5.67,9.7,14,15.8,25.27,17.76a100.3,100.3,0,0,1,16.94,4.08c8.82,3.19,11.74,10.86,12.48,19.39.66,7.59-1.3,14.1-8.79,18.08-1.44.77-1.77,3.62-2.61,5.52,2,.41,4.38,1.74,5.92,1.08C283.47,228.17,286.35,219.61,286.67,209.57ZM85.53,104.7c6,1.61,12,3.21,17.91,4.77,4,1,8,2.26,12.11,3,1.62.27,3.44-.69,5.17-1.09-1.32-1.07-2.48-2.5-4-3.15a39.19,39.19,0,0,0-6.28-1.54C92.92,102.49,75.76,97,57.47,96c-8.92-.51-15.81,2.8-22.75,6.63-6.67,3.68-10.27,10.29-12.36,17.52-.32,1.08.58,2.51.92,3.78a14.56,14.56,0,0,0,3.22-2.21c.71-.83.8-2.16,1.27-3.23C31,111,36.14,105.48,44.16,103c7.25,16.67,11.84,21.72,20.46,21C76.05,123.09,80.74,114.21,85.53,104.7Zm236.39,17.73L322,122c6.5,0,13,0,19.48,0,18.32-.16,34.47-6.6,49.24-17,2.41-1.7,4.85-3.63,2.76-6.92-2.4-3.77-4.89-1.1-7.12.42-12.27,8.41-25.44,15.25-40.5,15.46-18.45.26-36.93-.65-55.36-1.74a37.78,37.78,0,0,1-23.25-9.36c-2.14-1.92-4.32-3.64-6.76-.77s-.42,4.89,1.71,6.73a43.12,43.12,0,0,0,23,10.13C297.37,120.53,309.67,121.31,321.92,122.43Zm-51.15,390.8c18.8-1.19,33.74-6.84,48.35-13.42,10.56-4.75,20.28-10.87,27.67-20.06.74-.92.66-2.49,1-3.76-1.24.39-2.95.39-3.64,1.23-7,8.62-16.09,14.48-26.05,18.93-22.53,10.05-45.26,18.23-70.25,8-12.51-5.12-24.85-3-36.77,2.7-7.51,3.59-15,7.22-22.65,10.52-10.35,4.48-20.57,3.55-30.22-2.06a73,73,0,0,1-12.56-9c-5.76-5.27-11-11.16-16.52-16.67-.75-.74-2.2-.77-3.33-1.13.13,1.16-.18,2.7.45,3.41,8.82,10,17.83,19.88,29.95,26.12,13.11,6.75,26.31,7.81,39.68.59,5-2.69,10.07-5.18,15.18-7.61,12.22-5.82,24.7-7.21,37.87-3.08C256.79,510.44,265,511.87,270.77,513.23ZM248.3,459c9.9.48,17.72.84,25.54,1.24,2.75.15,5.31-.29,5.47-3.57.18-3.56-2.39-4.17-5.4-4.26-8-.24-16-.67-24-1-15.49-.6-30.94-1-46.21,2.77-13.87,3.41-27.89,6.24-41.77,9.64-1.52.38-2.54,2.81-3.79,4.29,1.58,1.06,3.29,3.17,4.71,3a155.2,155.2,0,0,0,21.59-3.76C206.1,461.54,227.64,455.63,248.3,459Zm56.85-358.72a62.3,62.3,0,0,0-9-.49c-1.59.11-3.08,1.58-4.62,2.43,1.21,1.66,2.11,3.79,3.72,4.85,1.36.89,3.55.8,5.35.7,9.62-.51,19.38-.28,28.8-1.94,25.86-4.58,48.19-15.89,64.69-37,1.65-2.12,4.45-4.51,1.17-7.23s-5.12.17-7.3,2.37c-5.94,6-11.54,12.59-18.34,17.45C350.61,95,328.79,100.15,305.15,100.29ZM453.39,254.12l2-.36L453.44,251a14.08,14.08,0,0,0-2.31,2.6,7.24,7.24,0,0,0-.53,2.93c-1,18.44-2.1,36.88-2.82,55.33s-3.82,36.23-12.55,52.51c-8,14.94-17,29.36-25.63,44-8.1,13.76-16.34,27.45-24.31,41.29-1.07,1.86-.93,4.41-1.34,6.65,1.49-1.58,3.35-2.94,4.42-4.76,3.12-5.31,5.68-10.95,8.89-16.19,10.25-16.77,20.75-33.37,31-50.11C441.56,363.64,451,340.78,451.59,315,452.06,294.68,452.78,274.4,453.39,254.12ZM220.88,71.8c0,.5,0,1,0,1.5.33,6.18,1.19,6.7,7,4.88,1.29-.4,2.88.09,4.32.24,3.57.38,5.61-1.65,4.87-4.88-3.35-14.58,2.14-27.8,14.61-35.44a22.89,22.89,0,0,0,5.09-3.87c2.78-3.09,5.19-6.5,7.86-9.69,1.17-1.39,2.65-2.52,3.93-3.82,1.92-1.94,2.58-4.38.07-5.88a6,6,0,0,0-5.43.43A132.53,132.53,0,0,0,252.61,25c-7.25,7.07-14.8,13.87-21.57,21.38A37.83,37.83,0,0,0,220.88,71.8ZM203.63-48.67l.81,1.77a23.58,23.58,0,0,0,4.48-1.5c7.52-4.24,14.88-8.77,22.46-12.89,12-6.53,24.25-12.48,36.05-19.29,10.41-6,21.2-9.15,33.29-8.58,18.91.88,36.82,5.71,54,13.28,12.78,5.64,25.16,12.17,37.78,18.17,1.41.67,3.22.48,4.84.69-1.08-1.35-1.89-3.17-3.29-4-5.35-3.05-10.83-5.87-16.35-8.58-19.94-9.79-40.36-18.16-62.47-21.76-19.33-3.15-37.63-2.18-54.36,10-7.61,5.53-16.47,9.33-24.79,13.86-9.48,5.17-19,10.23-28.46,15.46A25.6,25.6,0,0,0,203.63-48.67ZM58.5,155.08c21.26-.21,38.9-8.92,55.13-21.29a6.2,6.2,0,0,0,2.11-4.57c-.21-3.57-3.27-4.09-7.09-1.31-11.54,8.4-23.78,15.35-38.07,17.76-13.39,2.26-26.51.27-39.48-3.18-2.68-.71-5.18-.64-6,2.51s1.29,4.54,4,5C38.89,151.74,48.7,153.4,58.5,155.08ZM406.19-92l.19-1.5a18.28,18.28,0,0,0-3.16-1.77c-5.21-1.73-10.47-3.32-15.7-5-22.35-7.14-44.5-15.11-68.16-16.85-13.28-1-26.71-.74-39.82-2.72-19.55-3-38.49-2.3-57,4.76-1.69.65-2.93,2.48-4.38,3.75,1.78,0,3.72.34,5.32-.23a104.72,104.72,0,0,1,47.7-5.52c9.09,1.05,18.21,3.1,27.28,2.91,26.59-.55,51.88,5.14,76.75,13.77,8.95,3.12,18,5.91,27.09,8.7C403.44-91.38,404.88-91.92,406.19-92ZM381.77,52l3.58-3.36a16.92,16.92,0,0,0-3.39-2.2c-4.83-1.67-9.82-2.92-14.57-4.8s-9.17-4.88-14-6.43c-27.89-8.85-52.5-1.37-74.76,16a81.27,81.27,0,0,0-23.14,29.06c-.58,1.21.27,3.11.46,4.7,1.18-.89,2.41-1.71,3.51-2.68a7.07,7.07,0,0,0,.95-1.74c15.69-26.91,38.5-42.71,70.1-44.4,12.69-.67,24.12,3.67,35.17,9.63C370.54,48.43,376.09,49.85,381.77,52ZM32.27,178.39c2.81-.31,5.72-.21,8.39-1,10.2-2.94,20.29-6.26,30.47-9.23,2.86-.84,5.4-1.8,4.42-5.24-1.06-3.72-4-3.24-6.94-2.25-6.6,2.26-13.18,4.59-19.81,6.77C30,173.65,14,170.5,2.6,153c-.09-.14-.17-.37-.29-.39-1.89-.39-3.8-.75-5.7-1.12-.2,1.88-1.27,4.32-.47,5.56C4.55,170.13,16.1,178.16,32.27,178.39ZM278.71-145c-10.46,1.73-20.12,3.25-29.74,5-1.22.23-2.17,1.88-3.24,2.87,1.44.22,3,.93,4.32.58a106.1,106.1,0,0,1,42.1-2.68c16.15,2.21,32.2,5.21,48.36,7.35,24.73,3.29,48.91,8.21,71,20.47,1,.55,2.56,0,3.87,0-.71-1.11-1.16-2.79-2.16-3.24-8.79-3.94-17.38-8.84-26.6-11.2-17-4.35-34.4-7.53-51.74-10.56C316.1-139.61,297.15-142.16,278.71-145ZM60.87,82.24C48.17,82.38,37,84,26.68,89.12,12.33,96.27,5.26,108.06,5,123.94c0,1.63,1.42,3.28,2.18,4.92.8-1.51,2.26-3,2.29-4.53.4-15.7,7.76-27,22.3-32.34,26.91-9.92,52.6-5.83,76.93,8.74,1.93,1.14,3.71,4.34,6.17,1.4.36-.42-2-4-3.74-5.16C95.59,86.5,78,82.83,60.87,82.24Zm193.23,136c-1.21.53-2.39.7-3,1.38-1,1.15-2.42,2.93-2.08,3.9a5.82,5.82,0,0,0,3.7,3.29c3.42.7,9.86-3.22,10.65-6.17,1.16-4.33-1.44-7.19-4.64-9.09-22.08-13.06-41.52-5.53-51,13.62-1.09,2.2-2.76,4.81.49,6.47s5-.39,6.53-3.28C223.27,212,237.77,208.11,254.1,218.24Zm162.37,73.29-1.32-2.34a34.85,34.85,0,0,0-2.24,3.21,5.67,5.67,0,0,0-.25,2c-5.3,42.38-18,81.8-45.72,115.32-.67.81-.63,2.21-.92,3.33a22.51,22.51,0,0,0,3.71-1.14c.69-.33,1.13-1.19,1.64-1.84C398.73,375.75,412.09,336.06,416.47,291.53Zm14.15-448.35c.05-.58.09-1.16.14-1.74a17.12,17.12,0,0,0-3.81-1.59c-8.54-1.3-17.07-3.16-25.66-3.5-15.46-.6-31-.08-46.44-.34-16.4-.28-32.53-2.22-47.77-8.95-1.45-.64-3.43-.11-5.16-.12,1.32,1.21,2.45,2.86,4,3.56,13.74,6.18,28.33,8.44,43.25,8.74,17,.34,34,0,50.92.72,8.75.36,17.43,2.38,26.15,3.54A21,21,0,0,0,430.62-156.82ZM198.32-116.7c-.1-.48-.2-1-.31-1.44a16,16,0,0,0-3.12.38c-17.38,5.75-35,10.91-52,17.51-17.57,6.79-35,13.37-53.5,17.6-10.42,2.39-20.56,6.71-30.24,11.38C46.25-65,34-57.65,21.43-50.72c-.49.27-.79.88-1.18,1.33a9.72,9.72,0,0,0,6-1.16c8.35-4.5,16.86-8.77,24.9-13.77C66-73.49,81.9-79.28,98.81-83A243.35,243.35,0,0,0,126-91.2c20.73-7.24,41.34-14.84,62-22.24C191.41-114.66,194.89-115.62,198.32-116.7Zm-159,26.45.58,1.56a56.38,56.38,0,0,0,7.53-2.52c5.06-2.5,9.79-5.79,15-7.87s11.05-4.43,16.61-4.46c10.3,0,19.85-2,28.77-6.92a182.58,182.58,0,0,1,61.81-20.25c15.31-2.23,30.67-4.14,46-6.24,1.65-.22,3.25-.7,4.88-1.06l-.21-1.32a29.84,29.84,0,0,0-3.54,0c-6.6.83-13.18,1.81-19.8,2.57-32.73,3.76-64.75,9.7-94.19,25.88-6.23,3.43-14.34,4.48-21.62,4.66-8.33.19-15.71,2-22.74,6.16-4.27,2.57-8.67,4.93-13.08,7.26C43.43-91.77,41.35-91.08,39.34-90.25Zm94.47,193.58c1.72-1.13,3.36-1.78,4.4-3Q148.21,89,158,77.44a13.12,13.12,0,0,0,3.15-5.59c.31-1.74-.83-3.74-1.32-5.63-1.79.6-4.53.68-5.21,1.9A101.7,101.7,0,0,1,131.2,96.38a4.19,4.19,0,0,0-1.06,3.8C130.73,101.47,132.45,102.23,133.81,103.33ZM442.19-110.91c.08-.6.17-1.21.26-1.81a9.87,9.87,0,0,0-1.92-1.43Q405-129.16,369.35-144c-1-.4-2.45.44-3.7.7.94.94,1.72,2.28,2.85,2.76q34.61,14.7,69.3,29.19C439.11-110.84,440.72-111,442.19-110.91ZM121.73-30.56l-.32-1.6a18.29,18.29,0,0,0-2.77,0c-9.83,1.63-19.7,3.11-29.48,5-15.1,2.9-29.69,7.31-42.75,15.76a38.26,38.26,0,0,0-4,3.35l.87,1.35C66.73-23.53,94.63-25.74,121.73-30.56ZM39.19,134.6l.21-.56c1-.09,2.12.09,2.92-.35s1.94-1.52,2-2.36c0-.64-1.3-1.75-2.2-2-5.25-1.32-10.54-2.54-15.86-3.54-1-.19-2.25.73-3.39,1.13.58,1,.95,2.59,1.78,2.9C29.42,131.6,34.33,133.05,39.19,134.6Zm59.43-18.29c-1.92-.33-3.53-1.15-4.42-.66a93.18,93.18,0,0,0-10.38,6.64c-.73.54-.65,2.19-.94,3.33,1,.19,2.31.88,3,.49,3.7-2.14,7.27-4.5,10.82-6.89C97.28,118.82,97.56,118,98.62,116.31Zm20.66-72.4c-3.55-2.64-5.71-4.27-8-5.77A10.4,10.4,0,0,0,109.8,40a59.59,59.59,0,0,0,6,5.6C116.08,45.84,117.38,44.85,119.28,43.91ZM117.6,69.4c-.91-6.74-4.34-11.12-8.44-12C112.11,61.62,114.85,65.51,117.6,69.4Z" transform="translate(236.39 350.85)"/><path d="M-31.5,174.17c0-4.64-.35-9.31.21-13.88.17-1.41,2.79-2.52,4.3-3.77,1,1.44,3.07,2.93,3,4.31-.82,16.67,3.69,32.28,8.49,47.95C-7.26,235.67.05,262.86,8.73,289.6c4.55,14,11,27.48,17,41,4.14,9.37,7.73,18.8,8.31,29.13.78,14,5.44,27.06,10.49,39.95,4.56,11.62,9.38,23.14,14.25,34.64,11.62,27.39,32,46.71,57.16,61.49.44.25.87.49,1.32.72,2.51,1.29,5,2.85,3.22,6.1-1.92,3.52-4.72,2.14-7.26.55-5.37-3.36-10.73-6.72-16-10.17-2.36-1.53-4.57-3.28-7.26-5.22.09.85,0,1.36.19,1.61,25.21,29.42,54.11,54.21,89.55,70.65,42.49,19.72,83.16,15.07,122.35-9.27,31.75-19.71,58.69-44.94,83-73C414.27,444,439.16,407.22,457,366.07c9.77-22.46,14.12-46.46,18.56-70.39.76-4.09,1.43-8.2,2.14-12.3.43-2.48.58-5.49,4.14-5s4.15,3.32,3.53,6.45c-2.78,13.88-5.43,27.79-8.39,41.63-8.11,37.87-25,71.8-46.34,103.85-27.24,40.95-59,77.74-97.77,108.18a238.76,238.76,0,0,1-52.49,31.67c-32.82,14.23-65.59,12.55-98.17-.61-34.54-13.95-62.72-36.84-87.92-63.72-5.8-6.19-11.21-12.77-16.65-19.29-4-4.82-3.91-4.92-.58-10.14-22.71-22.07-30.34-52.2-42.19-80.11-5-11.77-7.07-24.14-8.57-36.82a69.68,69.68,0,0,0-7.11-23.72c-13.5-25.8-21.17-53.45-28.37-81.41C-13,239.36-18.55,224.83-23,210c-3.12-10.32-5.73-20.8-8.54-31.12-1.42.41-3.63,1.82-5.15,1.28-1.72-.6-3.1-2.79-4.15-4.57-8-13.48-10.3-28.68-13.56-43.66-1.75-8-5.06-15.71-7.83-23.49-1.33-3.75-3.44-7.26-4.45-11.08-2.56-9.72,2.79-16.44,13-16.48,8.79,0,15.92,4,23.09,10.94-1.52-10.43-2.8-19.57-4.2-28.7-4.31-28-9.25-55.89-12.83-84-4.57-35.8-4.43-71.51,6.9-106.37C-28.9-163.79-8.16-194.83,18.74-222c43.93-44.33,95.22-76.29,156-92.18,50.35-13.17,100.37-10.6,150,3.8,32.05,9.29,62.27,22.62,89.78,41.73,39.85,27.68,65.37,65.3,78,112,8.15,30.11,10.92,60.93,12.3,91.93,1.07,24.3,1.95,48.61,2.92,72.92.06,1.49.23,3,.41,5.23,2.08-.92,3.81-1.67,5.53-2.46,9-4.13,18.11-7.53,28.18-7.88,13.63-.48,23.22,5.71,29.7,17.36,9.14,16.44,11.25,34.19,8.31,52.34C576.41,94,572,115,567.76,136.08c-3.3,16.47-6.53,33-10.64,49.27-1.55,6.13-4.9,12.07-8.5,17.38-8,11.79-20,15-32.86,8.67-6.18-3-11.71-7.36-18.22-11.55.55,4.53.75,9.06,1.68,13.44,4.15,19.69,6.32,39.44,3.15,59.54-2.26,14.31-4.68,28.63-6.15,43-3.63,35.65-1.9,71.2,3.17,106.63.14,1,.79,2.24.4,2.9a35.15,35.15,0,0,1-3.66,4.56c-1.46-1.23-4-2.33-4.22-3.73-6-47.12-8.56-94.28,1.14-141.25,5-24.34,3.23-48.35-1.71-72.4a75,75,0,0,1-1.28-15.41c0-1.85,1.57-4.81,3.07-5.3,3-1,6.22-4.15,9.65.32a52.42,52.42,0,0,0,10.48,9.9c11.5,8.5,23.39,6.48,30.54-5.93a79.47,79.47,0,0,0,8-21.37c3.57-15.2,6.26-30.62,9.31-45.94l-1.19-.41c-1.15,2.54-2,5.26-3.52,7.59-3.85,6-7.76,12-12.07,17.67-1.64,2.16-2.12,3.59-.91,6.11A69.65,69.65,0,0,1,547.92,172c.36,1.37-.8,4.3-1.83,4.62a5.57,5.57,0,0,1-4.89-1.77c-1.49-2.11-1.74-5.05-3.05-7.33s-3.49-4.38-5.08-6.68a15.84,15.84,0,0,1-1.66-3.89,13.62,13.62,0,0,1-.92-3.64c-.1-2,.11-4.1.18-6.15,1.88.34,3.77.64,5.64,1,.42.1.76.56,1.47,1.1,9.6-9.88,15-21.73,17.83-35,.8-3.83-.26-8.62,4.81-10.71.5-.2.36-2.14.37-3.28.07-10.11-3.7-19.18-7.56-28.26-3.38-8-6.55-16-9.78-24-1.14-2.83-1-5.48,2.39-6.44s4.19,1.42,5,4.07c1.51,4.76,3.23,9.45,5.09,14.09,4.19,10.42,8.51,20.8,12.53,30.58,9.24-27.71,5.89-58.85-10.08-73.18-14,7.06-24.88,17.4-31.86,31.68-.88,1.79-1.31,4-2.66,5.31s-3.9,2.86-5.54,2.51c-3.17-.67-2.29-3.45-1.33-5.69C523.4,36,532.84,23.54,546.68,14.74c1.21-.76,2.34-1.64,3.51-2.47l-.17-1.7c-4,0-8.3-1-11.88.19-10,3.36-19.78,7.59-29.62,11.55-1.53.62-2.81,2-4.36,2.36s-3.93.33-4.82-.6-.59-3.22-.42-4.86,1.31-3.4,1.23-5.07c-1.76-38.44-2.86-76.94-5.71-115.31-2.51-33.77-10.43-66.44-26.38-96.73-18.36-34.85-46.68-59.68-80.59-78.26-49.21-27-102-40.75-158.29-38.48-42.87,1.74-82.88,14.49-120.38,34.95C67.11-256.94,30.32-228.12,1.25-190.17-32.06-146.69-46.54-97.28-41.61-43-38.35-7.26-32,28.24-27,63.86c1.23,8.74,2.46,17.48,3.74,26.22.57,3.9-.63,5.86-4.89,5-.7-.15-1.95-.28-2.13,0-3,5.3-5.6,2-8.84.13a75.87,75.87,0,0,0-14.45-6.58c-4.89-1.56-7.12.76-6.06,5.72a77.89,77.89,0,0,0,3,8.92c.39-.39.78-.79,1.16-1.19,2.39,1.49,5.43,2.47,7,4.55A177.21,177.21,0,0,1-34.23,127c2.12,3.73,2.43,8.56,3.2,13,.45,2.62-.22,5.23-3.58,5.45s-4-2-4.14-4.89c-.39-8.45-4-15.48-10.4-22.6C-44.66,138-44,157.83-31.5,174.17Z" transform="translate(236.39 350.85)"/><path d="M352.6,298.42c1.59,1.62,3.64,3,4.51,5,.3.66-2.54,2.54-3.64,4.07A7.84,7.84,0,0,0,352,311.3a59.93,59.93,0,0,1-10.49,30.84c-11.33,16.67-22.61,33.38-34.2,49.87-12.73,18.1-29.52,31-50.57,38.22-31.29,10.73-63.3,14.28-96,9.1C133,435,114,418.75,101.7,394.1,93,376.72,89,358.06,86.51,339c-.42-3.28.1-5.7,3.9-6-.9-3.41-2.08-6.53-2.39-9.74a5.51,5.51,0,0,1,2.42-4.3c6.53-3.62,13-7.47,20-10.1,13.22-5,26.77-9.19,40.12-13.9,11.46-4,23-5.51,34.81-1.85a62.08,62.08,0,0,0,40.2-.64c15.93-5.59,32-1.72,48,.12q27.32,3.12,54.68,5.69a74.35,74.35,0,0,0,15.44-.57c-1-.56-2-1.17-3-1.66-1.51-.7-3.48-1-4.44-2.09-.62-.73-.25-3.42.53-3.94,1.24-.81,3.19-.59,4.84-.68.41,0,1,.8,1.25.68,9.49-4.27,7.13,4.06,8.73,8.17.06.15.11.31.16.46ZM95.5,342.35l-1.82.63c3.71,13.25,6.5,26.85,11.34,39.68,10.76,28.52,31.34,45.92,62,49.86,29.73,3.81,58.87.32,87.15-9.5,20.33-7.06,36.23-20.14,48.47-37.74,7.61-10.94,15.33-21.81,22.69-32.91,5.05-7.62,9.91-15.41,14.22-23.46,3.44-6.42,4.76-13.58,4.5-22-1.38,1.54-2.17,2.32-2.84,3.17-7.94,10.08-15.73,20.27-23.8,30.24-16.06,19.83-33.79,37.75-57.4,48.69-5,2.31-9.94,4.71-15.06,6.68-53.52,20.56-107.58,5-140.95-40.57C101,351,98.32,346.62,95.5,342.35Zm147-1.49c-1.51,10.45-1.51,10.45-11.28,11.59-.49.06-1,.15-1.48.22-13.61,1.84-27.21,3.84-40.85,5.46-7.63.9-15.1.49-19.91-6.86-7.67,3.4-15.19,2.79-22.74.8-1.11-.3-2.59-1.28-3.25-.88-6.08,3.74-12.69,1.16-19,1.84-3.76.4-5.31-1.5-5.39-5.35-.09-5.27-.73-10.54-1.11-15.57H99.08c13.6,25.78,32,45.16,58.22,56.41,1.43.61,3.8-.13,5.41-.91,10.93-5.29,21.5-11.39,32.69-16,23.57-9.8,47-9.83,69.73,3.14,1.31.75,4.09.1,5.58-.85,15.64-10,28.38-23.09,40-37.4,7.18-8.87,14.09-18,21.14-27l-30.42,3.58c.18,1.75.39,3.7.55,5.65.79,9.31-3.39,14.53-12.73,15.62-4.13.47-8.34.29-12.45.89-2.1.31-4.08,1.59-6.05,2.56s-3.66,2.84-5.55,2.92C257.68,341.06,250.19,340.86,242.53,340.86Zm45.52-38.49c-6.56-1-13.14-1.86-19.69-2.92-15.27-2.49-30.47-3.56-45.44,1.67-11.25,3.94-22.53,3.63-33.91.49a62.48,62.48,0,0,0-41.55,2.56c-10.46,4.27-21.39,7.35-32.07,11.1-5.21,1.83-10.32,4-15.47,6l.41,1.32ZM170.59,392.7c18.62,9.37,73.2,1.7,87.59-12.32C233.66,366.58,205.78,370.75,170.59,392.7Zm4.19-69.89c.27,6.88.58,12.95.71,19,.14,7.09,1.81,8.93,8.92,8.63,4.47-.18,8.91-1.14,13.38-1.24,4.16-.09,5.23-2.22,4.67-5.71-1.23-7.64-2.61-15.26-4-23.23Zm34.31-3.6c-3.11,9.91,2.49,17.64,4.8,26a2.32,2.32,0,0,0,1.89,1.18c6.21-.62,12.4-1.37,19.62-2.21l-8-26.91Zm54-5.68c-8.44.91-15.84,1.66-23.22,2.54a3.36,3.36,0,0,0-2.31,1.34c-2.6,4.9,2.54,15.54,7.87,15.87,5.91.36,11.85.08,18.65.08C263.78,326.3,263.48,320.27,263.14,313.53ZM163,323.65c-6.45,1.19-12.48,2.25-18.48,3.45a3.53,3.53,0,0,0-2.17,1.64c-3,6,1.06,15,7.63,16.31a50.05,50.05,0,0,0,10.89.5c4.29-.12,5.82-2.74,5.09-6.76C165.11,334.06,164.13,329.36,163,323.65Zm111.4,4c5.55-.56,10.66-.83,15.67-1.64,3.64-.59,4.74-3.69,4.18-6.83-.43-2.44-1.75-6.53-3.05-6.69-6-.72-12.14-.32-18.73-.32C273.17,317.65,273.75,322.33,274.41,327.66Zm-142,1.73-7.31,1.06c.54,5.12,1,9.8,1.55,14.49h8.91Z" transform="translate(236.39 350.85)"/><path d="M273.33-6.61c1.2-2.11,1.69-3,2.37-4.18-1,0-1.5-.16-1.88,0-2.41,1.13-4.78,2.33-7.17,3.49a10.41,10.41,0,0,1-1.39.57C255.69-3.51,255.93-3.39,248.5,4c-3.05,3-6.89,5.34-9.44,8.7-2.22,2.94-3.31,6.81-4.57,10.39s-2.1,7.3-3.13,11c-5-1.49-5.22-8.69-.5-18.4v10l1.5.16q1.95-16.2,3.89-32.38l.92.08V2.3l1.23.13.75-9.1,1.5.06c.15,2.13.3,4.26.5,7.08l4.73-4.81-3.61-3.45,7-16.64c1.37-.93,3.78-2.61,6.24-4.2.79-.52,2.25-1.36,2.54-1.09,4.8,4.32,9.78.72,14.54.25,5.59-.55,11-2.39,16.62-3.14,2.77-.37,5.71.81,8.54.68,11.57-.52,23-1.58,33.69-6.83,1.12-.55,2.87.16,4.33.28-.7,1.25-1.41,2.49-1.92,3.4h9.33c.32,0,.84-.25.94-.12,4.18,5.37,7.52,0,11.06-1,5.37-1.55,10.59-3.59,16.26-5.56C357.14-52.92,342.17-61,323.34-58.65a132.73,132.73,0,0,1-40.8-1.6c-12.07-2.22-23,.23-33.22,7.2-5.86,4-12.5,6.87-18.94,9.93-1.23.58-3.18-.35-4.8-.59a29.1,29.1,0,0,1,3.79-2.93c5.24-2.87,11-5,15.76-8.48,12.44-9,25.84-10.87,40.79-8.7,11.11,1.61,22.66,2.37,33.77,1.18,21.6-2.31,39,6,55.3,18.47.73.56,1.51,1,2.28,1.52,1.08.67,2.18,1.31,3.27,2a17.28,17.28,0,0,1-3.6,2c-6.52,1.84-13.08,3.51-19.62,5.25,0,.49.05,1,.08,1.47,3.11.4,6.34.41,9.31,1.28,7.45,2.19,14.82,4.67,22.12,7.32,1,.36,1.36,2.4,2,3.66-1.3-.17-2.83.05-3.87-.56-11.35-6.73-24-7.47-36.68-8.18-1.82-.1-3.74,1.61-6.65,3,4.81.73,9.45,10.65,11.31-2.11l6,4.19c2.74-2.38,5-.58,7.34,2.64s2.64,3.13,5.94,1.68a11.21,11.21,0,0,1-2-2.75,3.2,3.2,0,0,1,.59-2.49,2.2,2.2,0,0,1,2,.22c5.71,7.49,11.52,14.9,16.84,22.66,1.67,2.44-1.3,6.78,2.7,8.85-.88.63-1.89,1.9-2.59,1.74-1.19-.26-2.16-1.44-3.24-2.21-8-5.73-16-11.43-23.93-17.21-2.08-1.51-4-3.25-7.05-5.77,7.46-1.61,9.82,5,14.81,5.6-4.77-3.69-6.43-11.62-14.88-10.35-3.19.48-6.7,1.72-9.56.88-5.78-1.69-9.46,0-12.68,4.67-1.74,2.54-2.79,2-4.18-1.63l-12.19.94-.45-2.38,14.93-3.83.06-1.57c-1-.37-2.08-1.17-3-1-1.77.3-3.41,1.36-5.18,1.72-4.77,1-8.18,6.68-14.19,3.87-1.06-.49-3.2,1.47-4.89,2.14a65.68,65.68,0,0,1-8.68,3c-.56.14-1.63-1.84-2.06-2.36Zm-6.2-9.65,23.19-10.51c-9.54-.34-17.1,3.46-23,10.66l-7.91,4.68C268.3-11.38,268.32-11.4,267.13-16.26Zm74.8-12.13c-9.29-4.75-27.82-.24-32.85,6.77,1.73.13,4.16.4,6.6.48a5.77,5.77,0,0,0,2.29-.69c4-1.65,7.95-3.25,11.86-5,3.26-1.48,6-1.88,6.8,3.28Zm-79.1,5.12c-7.31-.62-11,2.86-13.48,10Z" transform="translate(236.39 350.85)"/><path d="M386.83,300.79c-1.74,7.51-3.33,16-5.7,24.27-5.62,19.68-11.64,39.25-17.44,58.87-.81,2.74-1.1,6.13-5.15,5.12-3.87-1-3.25-4.07-2.41-6.92,5.36-18.2,10.84-36.36,16.07-54.59a187.13,187.13,0,0,0,5.47-22.77c1.9-12.2-1.36-23.37-8.26-33.63-10.51-15.6-23.94-28.56-37.24-41.64q-24.78-24.34-49.5-48.76c-1.06-1.05-2.58-2.06-2.89-3.34a6.1,6.1,0,0,1,.81-4.77c.69-.82,2.88-.48,4.39-.4.53,0,1,.78,1.51,1.25,25.27,25.15,50.69,50.15,75.74,75.51,9.53,9.65,17.58,20.59,21.3,33.95C385,288.35,385.61,294,386.83,300.79Z" transform="translate(236.39 350.85)"/><path d="M49.18,299.12c-1.83,2.69-3.4,5.62-5.58,8-1.14,1.23-3.35,1.47-5.08,2.15-.57-1.86-2.2-4.32-1.54-5.47,2.39-4.13,5-8.45,8.52-11.56a90.91,90.91,0,0,0,27.65-43.1c3.85-12.86,9-25.34,13.88-37.87a61.1,61.1,0,0,1,6.45-11.75c.69-1,3-.93,4.65-1.34.48,1.89,2,4.56,1.28,5.54-5.78,7.8-6.7,17.29-9.87,26-5.18,14.19-10.52,28.39-17,42-3.2,6.73-9.16,12.12-13.76,18.21-.86,1.14-1.79,2.77-1.64,4,1.21,10.91,3.44,21.75,3.92,32.67,1.41,31.78,13.78,59.72,29.07,86.75.58,1,1.71,2,1.72,3,0,1.59-.23,3.9-1.24,4.57s-3.59.45-4.75-.39c-1.52-1.1-2.41-3.13-3.42-4.85-17.65-30.25-29.16-62.33-29.66-97.82-.09-6.11-1.37-12.19-2.1-18.29Z" transform="translate(236.39 350.85)"/><path d="M-1.53,52.32A41.69,41.69,0,0,1-6.32,50c-.75-.5-1.12-1.59-1.67-2.41,1-.21,2-.73,2.84-.56,5.7,1,11.34,2.56,17.08,3.27,3.69.45,8.11,1.28,9.79-4.65,5.48,5.67,11.12,1.06,16.6,1.29,2.22.1,4.56-1.61,4.84,2.58.07,1,3.21,1.9,5.28,3,.12-5-7.66-5.91-4.25-11.29,2.51,3.42,8.06,4.51,7.32,10.31-.11.9,2.72,2.17,5,3.87V50.25c4.6,1.8,3.06,11.68,10.92,7.43C67.06,55,60.67,55,64,50.27c-3.08-1.62-6.19-3.18-9.23-4.87-2.5-1.38-4.09-2.8-.12-4.57,1-.45,1.6-1.9,2.29-2.94s1.17-2,1.75-3.07L59.56,39c5.3,3.5,11.17,7,16.58,11.13,2.61,2,4.34,5.13,7.36,7.45-2.76-5.57-2.23-9,4.4-10.2-4.82-1.17-9.66-2.26-14.44-3.55-1.08-.3-2-1.32-2.93-2,1.15-.57,2.39-1.76,3.43-1.61,3.11.46,6.13,1.53,9.22,2.18,2.33.49,4.72.69,7.09,1l.46-1.4c-3.07-1.35-6.22-2.55-9.17-4.12-1.08-.57-1.71-2-2.54-3.06a18.77,18.77,0,0,1,3.8-.19c5.1.75,10.18,1.63,15.26,2.5,1.77.31,3.51.72,5.27,1.09l-1.18,1.37a56.24,56.24,0,0,0,4.1,5.51c3.78,4,8.07,7.49,11.5,11.72,1.89,2.33,2.46,5.73,3.89,9.31a15,15,0,0,1-2.28-.4c-.78-7.83-8.25-10.15-12.45-15.14a84.88,84.88,0,0,0-8.1-8.83c-1.1-1-3.32-.7-5.71-1.1,2.56,5.55,2.56,5.55-3.09,7l23.09,18.83-1,1.3L86.4,51.49l-1.81,1.7c1.76,2.8,3.57,5.58,5.26,8.43a30.39,30.39,0,0,1,1.57,3.65c-1.3-.21-2.79-.07-3.87-.67-5.86-3.29-11.61-6.76-17.4-10.16l-.84,1.24c2.67,2,5.26,4.09,8,5.91,6.55,4.28,13.23,8.36,19.74,12.7,1,.65,1.28,2.28,1.89,3.46-1.39-.16-3,.11-4.12-.54-3.58-2.1-6.89-4.68-10.46-6.82a15.63,15.63,0,0,0-12.85-1.71c-2.09.58-4.87-1.35-7.31-1.28-2.21,0-4.52.42-6.61-.07C50.27,65.58,43,63.5,35.69,61.59c-1.21-.32-2.49-.4-5.22-.83,1.74,1.39,2.3,1.8,2.82,2.25,1.07.9,2.12,1.81,3.18,2.72-1.48.27-3,1-4.42.74-6-1.18-11.91-2.65-18.41-4.15L14.39,68,3,68.62l2,3.72c-1,.38-1.78,1-2.43.86C-3.63,72.24-9.88,71.33-16,70c-1.39-.29-2.48-2-3.71-3.13a26.46,26.46,0,0,1,4.22-.42c3.72.19,7.42.57,11.49-.26A42.32,42.32,0,0,1-9.44,63.4c-1.13-.79-1.86-2.17-2.77-3.29,1.38.21,3,0,4.08.68C-2,64.37,4.44,65.31,11.58,64.31c-3.24-4.08-6-4.7-11.39-2.67-2-2.89-3.31-5.86-1.62-9.45C2.34,54,6,56,9.89,57.4a81.79,81.79,0,0,0,9.64,2.4c3,.73,6,1.44,9.06,2.16C19.72,54.51,9.11,53.36-1.53,52.32ZM38.9,54.09,20.48,52.81l-.26,2.4,18.11,3.06C38.51,57,38.66,55.9,38.9,54.09Zm13.81,8.25C52,55.83,47.34,56,43.35,55l-.73,1.23Z" transform="translate(236.39 350.85)"/><path d="M351.07,58.71c-3.17,19.37-11.62,28.58-25.93,29.34-13.94.73-22.71-6-26.76-20.67-11,1.46-24.84,11.3-24.4,21.1h30.66a11.53,11.53,0,0,1,4,.23c1,.39,1.75,1.58,2.61,2.41-1,.68-1.92,1.92-2.9,1.94-5,.08-10-.24-15-.24-9.64,0-19.29.19-28.93.1-1.44,0-2.87-1.18-4.31-1.81,1.38-.92,2.64-2.16,4.15-2.65,1.69-.55,3.59-.4,5.48-.56-.61-6.43,2.41-11.27,7-14.7,4.73-3.56,10.15-6.23,15.37-9.09a59,59,0,0,1,10.73-5c3.56-1.09,7.42-1.18,11.16-1.66,9.38-1.2,18.74-2.88,28.16-3.4a41.34,41.34,0,0,1,25.15,6.79c1.22.79,1.72,2.69,2.55,4.08-1.56,0-3.28.33-4.66-.2C360.56,63,356.08,60.88,351.07,58.71Zm-38,3.36c1.94,3.69,2.7,7.29,4.91,8.87,3.75,2.69,8.32,1.88,12.18-.71,4-2.7,4.8-6.74,4.39-11.93Z" transform="translate(236.39 350.85)"/><path d="M527.3,116.27c2.1-9.33,4.37-18.64,6.24-28,1.19-6,1.82-12.19,2.63-18.3.42-3.16,1.56-5.73,5.28-5.07,3.56.64,2.68,3.47,2.38,6-2.12,18-3.4,36.38-11.28,53-4.73,10-11.14,19.24-17.11,28.61-2.24,3.51-6.42,3.45-8.6,0-.78-1.23-.4-4.86.3-5.13,7.44-2.81,9-10.25,12.93-15.74,2.76-3.83,2.43-7-.48-11-7.8-10.77-15.46-21.72-22.24-33.15-6.6-11.14-9.81-23.35-6.15-36.44.49-1.76.87-3.77,2-5.06s3.55-2.66,4.51-2.18c1.33.66,3,3.49,2.51,4.57-7.49,17.76.77,32.12,9.86,46.17,4.85,7.51,10.42,14.56,15.67,21.81Z" transform="translate(236.39 350.85)"/><path d="M264-99.9,246.12-96c.12.56.24,1.12.35,1.68,11.66-2.29,23.3-4.64,35-6.83,11.27-2.12,22.51-4.81,33.9-6,27.38-2.77,50.44,7.85,71.16,24.69.76.62.81,2.12,1.18,3.2-1.44-.32-3.23-.21-4.28-1A119.16,119.16,0,0,0,351-98.83c-17.89-6.65-35.87-5.51-54.13-1.71-16.77,3.48-33.67,6.36-50.58,9.13-3.39.56-7.06-.73-10.61-.83a14.59,14.59,0,0,0-5.19,1.13C189.56-75.87,147.33-64.94,105-54.5,86.72-50,68.13-46.82,50-41.88,30.9-36.66,14.6-26.61,3.54-9.45a3.55,3.55,0,0,1-1,1c-.22.13-.6,0-1.83-.06,1-1.65,1.6-3,2.44-4.23,9.89-14.49,23.71-24,40.16-29,17-5.12,34.5-8.7,51.81-12.83,44.06-10.52,87.86-21.91,130.65-37,11.26-4,23-6.47,34.59-9.57a14.17,14.17,0,0,1,3.51,0Z" transform="translate(236.39 350.85)"/><path d="M286.67,209.57c-.32,10-3.2,18.6-13.11,22.83-1.54.66-3.92-.67-5.92-1.08.84-1.9,1.17-4.75,2.61-5.52,7.49-4,9.45-10.49,8.79-18.08-.74-8.53-3.66-16.2-12.48-19.39a100.3,100.3,0,0,0-16.94-4.08c-11.29-2-19.6-8.06-25.27-17.76-8.93-15.29-13.76-32-16.67-49.38-.51-3,.24-5.81,3.6-5.72,1.37,0,3.34,2.67,3.88,4.46,3.7,12.23,6.6,24.72,10.79,36.77,2,5.65,5.86,10.8,9.58,15.64,4.39,5.69,11.05,7.55,17.9,8.94,6,1.21,12.21,2.36,17.68,4.93C282.5,187.49,286.2,197.8,286.67,209.57Z" transform="translate(236.39 350.85)"/><path d="M85.53,104.7c-4.79,9.51-9.48,18.39-20.91,19.33-8.62.71-13.21-4.34-20.46-21-8,2.46-13.12,8-16.39,15.44-.47,1.07-.56,2.4-1.27,3.23a14.56,14.56,0,0,1-3.22,2.21c-.34-1.27-1.24-2.7-.92-3.78,2.09-7.23,5.69-13.84,12.36-17.52,6.94-3.83,13.83-7.14,22.75-6.63,18.29,1.06,35.45,6.52,53,10.67a39.19,39.19,0,0,1,6.28,1.54c1.51.65,2.67,2.08,4,3.15-1.73.4-3.55,1.36-5.17,1.09-4.09-.69-8.09-1.9-12.11-3C97.5,107.91,91.57,106.31,85.53,104.7Zm-15.42-3L60,100.86c1.57,3.09,2.62,5.18,4,7.93Z" transform="translate(236.39 350.85)"/><path d="M321.92,122.43c-12.25-1.12-24.55-1.9-36.74-3.49a43.12,43.12,0,0,1-23-10.13c-2.13-1.84-4.09-3.91-1.71-6.73s4.62-1.15,6.76.77a37.78,37.78,0,0,0,23.25,9.36c18.43,1.09,36.91,2,55.36,1.74,15.06-.21,28.23-7,40.5-15.46,2.23-1.52,4.72-4.19,7.12-.42,2.09,3.29-.35,5.22-2.76,6.92-14.77,10.42-30.92,16.86-49.24,17-6.49,0-13,0-19.48,0Z" transform="translate(236.39 350.85)"/><path d="M121.11,236.71c1.3,2.41,2.74,5-.34,7s-4.89-.41-6.61-2.46c-7.83-9.31-10-19.95-4.37-30.65,3.85-7.36,8.8-15,15.26-20,19.65-15,26.67-35.36,28.6-58.6.12-1.49-.33-3.34.4-4.4,1-1.51,2.92-2.44,4.44-3.62,1.06,1.41,3.11,2.88,3,4.23-1.55,25.55-6.62,49.43-28.94,66.18-6.07,4.55-11.22,11-15.21,17.5-5.43,8.86-3.34,18.23,3.78,24.81Z" transform="translate(236.39 350.85)"/><path d="M270.77,513.23c-5.76-1.36-14-2.79-21.87-5.27-13.17-4.13-25.65-2.74-37.87,3.08-5.11,2.43-10.2,4.92-15.18,7.61-13.37,7.22-26.57,6.16-39.68-.59-12.12-6.24-21.13-16.1-29.95-26.12-.63-.71-.32-2.25-.45-3.41,1.13.36,2.58.39,3.33,1.13,5.56,5.51,10.76,11.4,16.52,16.67a73,73,0,0,0,12.56,9c9.65,5.61,19.87,6.54,30.22,2.06,7.64-3.3,15.14-6.93,22.65-10.52,11.92-5.7,24.26-7.82,36.77-2.7,25,10.23,47.72,2.05,70.25-8,10-4.45,19-10.31,26.05-18.93.69-.84,2.4-.84,3.64-1.23-.31,1.27-.23,2.84-1,3.76-7.39,9.19-17.11,15.31-27.67,20.06C304.51,506.39,289.57,512,270.77,513.23Z" transform="translate(236.39 350.85)"/><path d="M248.3,459c-20.66-3.38-42.2,2.53-63.82,8.36a155.2,155.2,0,0,1-21.59,3.76c-1.42.17-3.13-1.94-4.71-3,1.25-1.48,2.27-3.91,3.79-4.29,13.88-3.4,27.9-6.23,41.77-9.64,15.27-3.75,30.72-3.37,46.21-2.77,8,.32,16,.75,24,1,3,.09,5.58.7,5.4,4.26-.16,3.28-2.72,3.72-5.47,3.57C266,459.85,258.2,459.49,248.3,459Z" transform="translate(236.39 350.85)"/><path d="M305.15,100.29c23.64-.14,45.46-5.3,64.49-18.91,6.8-4.86,12.4-11.44,18.34-17.45,2.18-2.2,4-5.13,7.3-2.37s.48,5.11-1.17,7.23c-16.5,21.16-38.83,32.47-64.69,37.05-9.42,1.66-19.18,1.43-28.8,1.94-1.8.1-4,.19-5.35-.7-1.61-1.06-2.51-3.19-3.72-4.85,1.54-.85,3-2.32,4.62-2.43A62.3,62.3,0,0,1,305.15,100.29Z" transform="translate(236.39 350.85)"/><path d="M453.39,254.12c-.61,20.28-1.33,40.56-1.8,60.84-.6,25.82-10,48.68-23.29,70.26-10.29,16.74-20.79,33.34-31,50.11-3.21,5.24-5.77,10.88-8.89,16.19-1.07,1.82-2.93,3.18-4.42,4.76.41-2.24.27-4.79,1.34-6.65,8-13.84,16.21-27.53,24.31-41.29,8.61-14.62,17.62-29,25.63-44,8.73-16.28,11.83-34.14,12.55-52.51s1.85-36.89,2.82-55.33a7.24,7.24,0,0,1,.53-2.93,14.08,14.08,0,0,1,2.31-2.6l1.95,2.77Z" transform="translate(236.39 350.85)"/><path d="M220.88,71.8A37.83,37.83,0,0,1,231,46.42c6.77-7.51,14.32-14.31,21.57-21.38a132.53,132.53,0,0,1,10.64-9.77,6,6,0,0,1,5.43-.43c2.51,1.5,1.85,3.94-.07,5.88-1.28,1.3-2.76,2.43-3.93,3.82-2.67,3.19-5.08,6.6-7.86,9.69a22.89,22.89,0,0,1-5.09,3.87c-12.47,7.64-18,20.86-14.61,35.44.74,3.23-1.3,5.26-4.87,4.88-1.44-.15-3-.64-4.32-.24-5.85,1.82-6.71,1.3-7-4.88C220.86,72.8,220.88,72.3,220.88,71.8Z" transform="translate(236.39 350.85)"/><path d="M203.63-48.67a25.6,25.6,0,0,1,4-3.37c9.45-5.23,19-10.29,28.46-15.46,8.32-4.53,17.18-8.33,24.79-13.86,16.73-12.14,35-13.11,54.36-10,22.11,3.6,42.53,12,62.47,21.76C383.2-66.85,388.68-64,394-61c1.4.79,2.21,2.61,3.29,4-1.62-.21-3.43,0-4.84-.69-12.62-6-25-12.53-37.78-18.17-17.16-7.57-35.07-12.4-54-13.28-12.09-.57-22.88,2.56-33.29,8.58-11.8,6.81-24.08,12.76-36.05,19.29-7.58,4.12-14.94,8.65-22.46,12.89a23.58,23.58,0,0,1-4.48,1.5Z" transform="translate(236.39 350.85)"/><path d="M58.5,155.08c-9.8-1.68-19.61-3.34-29.4-5.06-2.75-.48-4.93-1.78-4-5s3.36-3.22,6-2.51c13,3.45,26.09,5.44,39.48,3.18,14.29-2.41,26.53-9.36,38.07-17.76,3.82-2.78,6.88-2.26,7.09,1.31a6.2,6.2,0,0,1-2.11,4.57C97.4,146.16,79.76,154.87,58.5,155.08Z" transform="translate(236.39 350.85)"/><path d="M406.19-92c-1.31.12-2.75.66-3.91.3-9.06-2.79-18.14-5.58-27.09-8.7-24.87-8.63-50.16-14.32-76.75-13.77-9.07.19-18.19-1.86-27.28-2.91a104.72,104.72,0,0,0-47.7,5.52c-1.6.57-3.54.18-5.32.23,1.45-1.27,2.69-3.1,4.38-3.75,18.53-7.06,37.47-7.72,57-4.76,13.11,2,26.54,1.74,39.82,2.72,23.66,1.74,45.81,9.71,68.16,16.85,5.23,1.68,10.49,3.27,15.7,5a18.28,18.28,0,0,1,3.16,1.77Z" transform="translate(236.39 350.85)"/><path d="M381.77,52c-5.68-2.13-11.23-3.55-16.13-6.19-11.05-6-22.48-10.3-35.17-9.63-31.6,1.69-54.41,17.49-70.1,44.4a7.07,7.07,0,0,1-.95,1.74c-1.1,1-2.33,1.79-3.51,2.68-.19-1.59-1-3.49-.46-4.7a81.27,81.27,0,0,1,23.14-29.06c22.26-17.4,46.87-24.88,74.76-16,4.87,1.55,9.26,4.55,14,6.43s9.74,3.13,14.57,4.8a16.92,16.92,0,0,1,3.39,2.2Z" transform="translate(236.39 350.85)"/><path d="M32.27,178.39C16.1,178.16,4.55,170.13-3.86,157c-.8-1.24.27-3.68.47-5.56,1.9.37,3.81.73,5.7,1.12.12,0,.2.25.29.39C14,170.5,30,173.65,48.8,167.45c6.63-2.18,13.21-4.51,19.81-6.77,2.89-1,5.88-1.47,6.94,2.25,1,3.44-1.56,4.4-4.42,5.24-10.18,3-20.27,6.29-30.47,9.23C38,178.18,35.08,178.08,32.27,178.39Z" transform="translate(236.39 350.85)"/><path d="M278.71-145c18.44,2.81,37.39,5.36,56.21,8.65,17.34,3,34.7,6.21,51.74,10.56,9.22,2.36,17.81,7.26,26.6,11.2,1,.45,1.45,2.13,2.16,3.24-1.31,0-2.88.52-3.87,0-22.13-12.26-46.31-17.18-71-20.47-16.16-2.14-32.21-5.14-48.36-7.35a106.1,106.1,0,0,0-42.1,2.68c-1.29.35-2.88-.36-4.32-.58,1.07-1,2-2.64,3.24-2.87C258.59-141.72,268.25-143.24,278.71-145Z" transform="translate(236.39 350.85)"/><path d="M60.87,82.24C78,82.83,95.59,86.5,111.15,97c1.74,1.17,4.1,4.74,3.74,5.16-2.46,2.94-4.24-.26-6.17-1.4C84.39,86.16,58.7,82.07,31.79,92c-14.54,5.36-21.9,16.64-22.3,32.34,0,1.53-1.49,3-2.29,4.53-.76-1.64-2.2-3.29-2.18-4.92.24-15.88,7.31-27.67,21.66-34.82C37,84,48.17,82.38,60.87,82.24Z" transform="translate(236.39 350.85)"/><path d="M254.1,218.24c-16.33-10.13-30.83-6.28-39.32,10.12-1.5,2.89-3.2,5-6.53,3.28s-1.58-4.27-.49-6.47c9.49-19.15,28.93-26.68,51-13.62,3.2,1.9,5.8,4.76,4.64,9.09-.79,3-7.23,6.87-10.65,6.17a5.82,5.82,0,0,1-3.7-3.29c-.34-1,1.11-2.75,2.08-3.9C251.71,218.94,252.89,218.77,254.1,218.24Z" transform="translate(236.39 350.85)"/><path d="M416.47,291.53c-4.38,44.53-17.74,84.22-45.1,118.51-.51.65-.95,1.51-1.64,1.84A22.51,22.51,0,0,1,366,413c.29-1.12.25-2.52.92-3.33,27.69-33.52,40.42-72.94,45.72-115.32a5.67,5.67,0,0,1,.25-2,34.85,34.85,0,0,1,2.24-3.21Z" transform="translate(236.39 350.85)"/><path d="M430.62-156.82a21,21,0,0,1-4.37.32c-8.72-1.16-17.4-3.18-26.15-3.54-17-.71-34-.38-50.92-.72-14.92-.3-29.51-2.56-43.25-8.74-1.56-.7-2.69-2.35-4-3.56,1.73,0,3.71-.52,5.16.12,15.24,6.73,31.37,8.67,47.77,8.95,15.48.26,31-.26,46.44.34,8.59.34,17.12,2.2,25.66,3.5a17.12,17.12,0,0,1,3.81,1.59C430.71-158,430.67-157.4,430.62-156.82Z" transform="translate(236.39 350.85)"/><path d="M198.32-116.7c-3.43,1.08-6.91,2-10.3,3.26-20.67,7.4-41.28,15-62,22.24A243.35,243.35,0,0,1,98.81-83C81.9-79.28,66-73.49,51.19-64.32c-8,5-16.55,9.27-24.9,13.77a9.72,9.72,0,0,1-6,1.16c.39-.45.69-1.06,1.18-1.33C34-57.65,46.25-65,59.11-71.27c9.68-4.67,19.82-9,30.24-11.38,18.45-4.23,35.93-10.81,53.5-17.6,17.05-6.6,34.66-11.76,52-17.51a16,16,0,0,1,3.12-.38C198.12-117.66,198.22-117.18,198.32-116.7Z" transform="translate(236.39 350.85)"/><path d="M39.34-90.25c2-.83,4.09-1.52,6-2.53,4.41-2.33,8.81-4.69,13.08-7.26,7-4.2,14.41-6,22.74-6.16,7.28-.18,15.39-1.23,21.62-4.66C132.23-127,164.25-133,197-136.74c6.62-.76,13.2-1.74,19.8-2.57a29.84,29.84,0,0,1,3.54,0l.21,1.32c-1.63.36-3.23.84-4.88,1.06-15.33,2.1-30.69,4-46,6.24a182.58,182.58,0,0,0-61.81,20.25c-8.92,4.88-18.47,6.87-28.77,6.92-5.56,0-11.3,2.33-16.61,4.46s-10,5.37-15,7.87a56.38,56.38,0,0,1-7.53,2.52Z" transform="translate(236.39 350.85)"/><path d="M121.15,236.74c10.2-19.13,29.61-22.26,45.29-7.09,1.26,1.21,2.09,4.44,1.37,5.8-1.45,2.75-4.05,2-6.32.16a51,51,0,0,0-6.85-5c-8.88-5.06-17.09-3.36-23.44,4.66-4.4,5.54-4.74,5.58-10.09,1.4Z" transform="translate(236.39 350.85)"/><path d="M133.81,103.33c-1.36-1.1-3.08-1.86-3.67-3.15a4.19,4.19,0,0,1,1.06-3.8,101.7,101.7,0,0,0,23.38-28.26c.68-1.22,3.42-1.3,5.21-1.9.49,1.89,1.63,3.89,1.32,5.63A13.12,13.12,0,0,1,158,77.44Q148.23,89,138.21,100.37C137.17,101.55,135.53,102.2,133.81,103.33Z" transform="translate(236.39 350.85)"/><path d="M442.19-110.91c-1.47-.14-3.08.07-4.39-.47q-34.69-14.49-69.3-29.19c-1.13-.48-1.91-1.82-2.85-2.76,1.25-.26,2.73-1.1,3.7-.7q35.64,14.81,71.18,29.88a9.87,9.87,0,0,1,1.92,1.43C442.36-112.12,442.27-111.51,442.19-110.91Z" transform="translate(236.39 350.85)"/><path d="M121.73-30.56c-27.1,4.82-55,7-78.44,23.86L42.42-8a38.26,38.26,0,0,1,4-3.35c13.06-8.45,27.65-12.86,42.75-15.76,9.78-1.88,19.65-3.36,29.48-5a18.29,18.29,0,0,1,2.77,0Z" transform="translate(236.39 350.85)"/><path d="M39.19,134.6c-4.86-1.55-9.77-3-14.56-4.75-.83-.31-1.2-1.9-1.78-2.9,1.14-.4,2.37-1.32,3.39-1.13,5.32,1,10.61,2.22,15.86,3.54.9.22,2.23,1.33,2.2,2,0,.84-1.1,1.87-2,2.36s-1.94.26-2.92.35Z" transform="translate(236.39 350.85)"/><path d="M98.62,116.31c-1.06,1.64-1.34,2.51-1.93,2.91-3.55,2.39-7.12,4.75-10.82,6.89-.68.39-2-.3-3-.49.29-1.14.21-2.79.94-3.33a93.18,93.18,0,0,1,10.38-6.64C95.09,115.16,96.7,116,98.62,116.31Z" transform="translate(236.39 350.85)"/><path d="M119.28,43.91c-1.9.94-3.2,1.93-3.51,1.68a59.59,59.59,0,0,1-6-5.6,10.4,10.4,0,0,1,1.52-1.85C113.57,39.64,115.73,41.27,119.28,43.91Z" transform="translate(236.39 350.85)"/><path d="M117.6,69.4c-2.75-3.89-5.49-7.78-8.44-12C113.26,58.28,116.69,62.66,117.6,69.4Z" transform="translate(236.39 350.85)"/><path class="cls-1" d="M95.5,342.35c2.82,4.27,5.46,8.68,8.49,12.81,33.37,45.56,87.43,61.13,141,40.57,5.12-2,10.07-4.37,15.06-6.68,23.61-10.94,41.34-28.86,57.4-48.69,8.07-10,15.86-20.16,23.8-30.24.67-.85,1.46-1.63,2.84-3.17.26,8.38-1.06,15.54-4.5,22-4.31,8-9.17,15.84-14.22,23.46-7.36,11.1-15.08,22-22.69,32.91C290.39,402.88,274.49,416,254.16,423c-28.28,9.82-57.42,13.31-87.15,9.5-30.65-3.94-51.23-21.34-62-49.86-4.84-12.83-7.63-26.43-11.34-39.68Z" transform="translate(236.39 350.85)"/><path class="cls-1" d="M242.53,340.86c7.66,0,15.15.2,22.62-.15,1.89-.08,3.66-2,5.55-2.92s3.95-2.25,6.05-2.56c4.11-.6,8.32-.42,12.45-.89,9.34-1.09,13.52-6.31,12.73-15.62-.16-2-.37-3.9-.55-5.65l30.42-3.58c-7.05,9-14,18.1-21.14,27-11.57,14.31-24.31,27.44-40,37.4-1.49.95-4.27,1.6-5.58.85-22.76-13-46.16-12.94-69.73-3.14-11.19,4.65-21.76,10.75-32.69,16-1.61.78-4,1.52-5.41.91-26.22-11.25-44.62-30.63-58.22-56.41h18.43c.38,5,1,10.3,1.11,15.57.08,3.85,1.63,5.75,5.39,5.35,6.32-.68,12.93,1.9,19-1.84.66-.4,2.14.58,3.25.88,7.55,2,15.07,2.6,22.74-.8,4.81,7.35,12.28,7.76,19.91,6.86,13.64-1.62,27.24-3.62,40.85-5.46.5-.07,1-.16,1.48-.22C241,351.31,241,351.31,242.53,340.86Z" transform="translate(236.39 350.85)"/><path class="cls-1" d="M288.05,302.37l-187.72,20.2-.41-1.32c5.15-2,10.26-4.15,15.47-6,10.68-3.75,21.61-6.83,32.07-11.1A62.48,62.48,0,0,1,189,301.61c11.38,3.14,22.66,3.45,33.91-.49,15-5.23,30.17-4.16,45.44-1.67C274.91,300.51,281.49,301.4,288.05,302.37Z" transform="translate(236.39 350.85)"/><path class="cls-1" d="M170.59,392.7c35.19-21.95,63.07-26.12,87.59-12.32C243.79,394.4,189.21,402.07,170.59,392.7Z" transform="translate(236.39 350.85)"/><path class="cls-1" d="M174.78,322.81l23.68-2.52c1.39,8,2.77,15.59,4,23.23.56,3.49-.51,5.62-4.67,5.71-4.47.1-8.91,1.06-13.38,1.24-7.11.3-8.78-1.54-8.92-8.63C175.36,335.76,175.05,329.69,174.78,322.81Z" transform="translate(236.39 350.85)"/><path class="cls-1" d="M209.09,319.21l18.31-2,8,26.91c-7.22.84-13.41,1.59-19.62,2.21a2.32,2.32,0,0,1-1.89-1.18C211.58,336.85,206,329.12,209.09,319.21Z" transform="translate(236.39 350.85)"/><path class="cls-1" d="M263.14,313.53c.34,6.74.64,12.77,1,19.83-6.8,0-12.74.28-18.65-.08-5.33-.33-10.47-11-7.87-15.87a3.36,3.36,0,0,1,2.31-1.34C247.3,315.19,254.7,314.44,263.14,313.53Z" transform="translate(236.39 350.85)"/><path class="cls-1" d="M163,323.65c1.12,5.71,2.1,10.41,3,15.14.73,4-.8,6.64-5.09,6.76a50.05,50.05,0,0,1-10.89-.5c-6.57-1.29-10.62-10.27-7.63-16.31a3.53,3.53,0,0,1,2.17-1.64C150.53,325.9,156.56,324.84,163,323.65Z" transform="translate(236.39 350.85)"/><path class="cls-1" d="M274.41,327.66c-.66-5.33-1.24-10-1.93-15.48,6.59,0,12.73-.4,18.73.32,1.3.16,2.62,4.25,3.05,6.69.56,3.14-.54,6.24-4.18,6.83C285.07,326.83,280,327.1,274.41,327.66Z" transform="translate(236.39 350.85)"/><path class="cls-1" d="M132.36,329.39l3.15,15.55H126.6c-.5-4.69-1-9.37-1.55-14.49Z" transform="translate(236.39 350.85)"/><path class="cls-1" d="M341.93-28.39l-5.3,4.82c-.83-5.16-3.54-4.76-6.8-3.28-3.91,1.77-7.89,3.37-11.86,5a5.77,5.77,0,0,1-2.29.69c-2.44-.08-4.87-.35-6.6-.48C314.11-28.63,332.64-33.14,341.93-28.39Z" transform="translate(236.39 350.85)"/><path class="cls-1" d="M267.27-16.13c6-7.18,13.51-11,23.05-10.64L267.13-16.26Z" transform="translate(236.39 350.85)"/><path class="cls-1" d="M262.83-23.27l-13.48,10C251.86-20.41,255.52-23.89,262.83-23.27Z" transform="translate(236.39 350.85)"/><path class="cls-1" d="M267.13-16.26c1.19,4.86,1.17,4.88-7.75,4.83l7.9-4.69Z" transform="translate(236.39 350.85)"/><path class="cls-1" d="M-1.53,52.32c10.64,1,21.25,2.19,30.12,9.64-3-.72-6-1.43-9.06-2.16a81.79,81.79,0,0,1-9.64-2.4C6,56,2.34,54-1.43,52.19Z" transform="translate(236.39 350.85)"/><path class="cls-1" d="M38.9,54.09c-.24,1.81-.39,2.88-.57,4.18L20.22,55.21l.26-2.4Z" transform="translate(236.39 350.85)"/><path class="cls-1" d="M52.71,62.34,42.62,56.2,43.35,55C47.34,56,52,55.83,52.71,62.34Z" transform="translate(236.39 350.85)"/><path class="cls-1" d="M313.08,62.07l21.48-3.77c.41,5.19-.36,9.23-4.39,11.93-3.86,2.59-8.43,3.4-12.18.71C315.78,69.36,315,65.76,313.08,62.07Z" transform="translate(236.39 350.85)"/><path class="cls-1" d="M70.11,101.68,64,108.79c-1.39-2.75-2.44-4.84-4-7.93Z" transform="translate(236.39 350.85)"/></svg>